<svg width="56" height="44" viewBox="0 0 56 44" fill="none" xmlns="http://www.w3.org/2000/svg">
<path d="M28 0H14C6.26801 0 0 6.26801 0 14V28C0 35.732 6.26801 42 14 42H28C35.732 42 42 35.732 42 28V14C42 6.26801 35.732 0 28 0Z" fill="url(#paint0_linear_137_4)" fill-opacity="0.15"/>
<path fill-rule="evenodd" clip-rule="evenodd" d="M16.396 10.375C14.7995 10.3755 13.2685 11.0099 12.1394 12.1387C11.0104 13.2676 10.3758 14.7985 10.375 16.395V17.955H18.167C18.7717 17.9551 19.3706 17.8361 19.9293 17.6047C20.488 17.3733 20.9956 17.0341 21.4232 16.6065C21.8507 16.1788 22.1898 15.6711 22.4211 15.1123C22.6524 14.5536 22.7713 13.9547 22.771 13.35V10.375H16.396ZM16.396 8.25C14.2357 8.25053 12.1641 9.10894 10.6365 10.6365C9.10894 12.1641 8.25053 14.2357 8.25 16.396V25.604C8.25053 27.7643 9.10894 29.8359 10.6365 31.3635C12.1641 32.8911 14.2357 33.7495 16.396 33.75H25.604C27.7643 33.7495 29.8359 32.8911 31.3635 31.3635C32.8911 29.8359 33.7495 27.7643 33.75 25.604V16.396C33.7495 14.2357 32.8911 12.1641 31.3635 10.6365C29.8359 9.10894 27.7643 8.25053 25.604 8.25H16.396ZM24.896 10.375V13.35C24.8963 14.2339 24.7224 15.1091 24.3842 15.9258C24.0461 16.7424 23.5504 17.4844 22.9254 18.1094C22.3004 18.7344 21.5584 19.2301 20.7418 19.5682C19.9251 19.9064 19.0499 20.0803 18.166 20.08H10.375V25.604C10.3755 27.2005 11.0099 28.7315 12.1387 29.8606C13.2676 30.9896 14.7985 31.6242 16.395 31.625H17.105V28.65C17.1047 27.7663 17.2786 26.8912 17.6166 26.0747C17.9546 25.2582 18.4501 24.5163 19.0749 23.8913C19.6997 23.2663 20.4414 22.7706 21.2578 22.4323C22.0743 22.0941 22.9493 21.92 23.833 21.92H31.625V16.396C31.6245 14.7995 30.9901 13.2685 29.8613 12.1394C28.7324 11.0104 27.2015 10.3758 25.605 10.375H24.896ZM31.625 24.045H23.833C23.2283 24.0449 22.6294 24.1639 22.0707 24.3953C21.512 24.6267 21.0044 24.9659 20.5768 25.3935C20.1493 25.8212 19.8102 26.3289 19.5789 26.8877C19.3476 27.4464 19.2287 28.0453 19.229 28.65V31.625H25.604C27.2005 31.6245 28.7315 30.9901 29.8606 29.8613C30.9896 28.7324 31.6242 27.2015 31.625 25.605V24.045Z" fill="url(#paint1_linear_137_4)"/>
<path d="M30.1221 33.1144H34.0992C35.2666 33.1242 36.1124 33.4608 36.6369 34.1236C37.1613 34.7863 37.3344 35.6916 37.1563 36.8393C37.0871 37.3637 36.9337 37.8781 36.6962 38.3826C36.4686 38.8872 36.1522 39.3422 35.7465 39.7479C35.2517 40.2623 34.7225 40.5888 34.1586 40.7274C33.5947 40.866 33.0109 40.9351 32.4075 40.9351H30.6267L30.0628 43.7547H28L30.1221 33.1144ZM31.8584 34.8062L30.968 39.2582C31.0274 39.268 31.0867 39.273 31.1461 39.273C31.2152 39.273 31.2847 39.273 31.3538 39.273C32.3036 39.2828 33.0952 39.189 33.7282 38.9911C34.3613 38.7833 34.7869 38.0612 35.0045 36.8244C35.1826 35.7856 35.0045 35.187 34.4702 35.0288C33.9458 34.8706 33.2881 34.7964 32.4965 34.8062C32.3778 34.816 32.2641 34.821 32.1552 34.821C32.0564 34.821 31.9525 34.821 31.8436 34.821L31.8584 34.8062Z" fill="white"/>
<path d="M39.506 30.28H41.554L40.9752 33.1144H42.8154C43.8245 33.1343 44.5763 33.3421 45.071 33.7377C45.5756 34.1334 45.724 34.8854 45.5162 35.9934L44.522 40.9351H42.4444L43.3941 36.216C43.493 35.7212 43.4633 35.3701 43.3051 35.1624C43.1469 34.9546 42.8056 34.8507 42.2811 34.8507L40.6339 34.8359L39.417 40.9351H37.3691L39.506 30.28Z" fill="white"/>
<path d="M47.7154 33.1144H51.6925C52.8598 33.1242 53.7057 33.4608 54.2301 34.1236C54.7546 34.7863 54.9276 35.6916 54.7495 36.8393C54.6804 37.3637 54.5269 37.8781 54.2895 38.3826C54.0618 38.8872 53.7454 39.3422 53.3397 39.7479C52.845 40.2623 52.3158 40.5888 51.7518 40.7274C51.1879 40.866 50.6041 40.9351 50.0007 40.9351H48.2199L47.656 43.7547H45.5932L47.7154 33.1144ZM49.4516 34.8062L48.5612 39.2582C48.6206 39.268 48.68 39.273 48.7393 39.273C48.8085 39.273 48.8779 39.273 48.9471 39.273C49.8968 39.2828 50.6884 39.189 51.3215 38.9911C51.9546 38.7833 52.3802 38.0612 52.5977 36.8244C52.7758 35.7856 52.5977 35.187 52.0635 35.0288C51.539 34.8706 50.8813 34.7964 50.0898 34.8062C49.971 34.816 49.8574 34.821 49.7484 34.821C49.6496 34.821 49.5457 34.821 49.4368 34.821L49.4516 34.8062Z" fill="white"/>
<defs>
<linearGradient id="paint0_linear_137_4" x1="-0.412" y1="-0.412" x2="42.412" y2="42.412" gradientUnits="userSpaceOnUse">
<stop stop-color="#6763FF"/>
<stop offset="0.5" stop-color="#7E4FE8"/>
<stop offset="1" stop-color="#B857FF"/>
</linearGradient>
<linearGradient id="paint1_linear_137_4" x1="8" y1="8" x2="34" y2="34" gradientUnits="userSpaceOnUse">
<stop stop-color="#6763FF"/>
<stop offset="0.5" stop-color="#7E4FE8"/>
<stop offset="1" stop-color="#B857FF"/>
</linearGradient>
</defs>
</svg>
